<svg width="1724" height="874" viewBox="0 0 1724 874" fill="none" xmlns="http://www.w3.org/2000/svg">
<rect width="1724" height="874" fill="white"/>
<circle cx="124" cy="117" r="30" fill="#04FF0C"/>
<circle cx="205" cy="657" r="30" fill="#04C9FF"/>
<circle cx="568" cy="357" r="30" fill="#04C9FF"/>
<circle cx="645" cy="534" r="30" fill="#FFCD04"/>
<circle cx="1179" cy="193" r="30" fill="#FF0408"/>
<circle cx="180.5" cy="108.5" r="12.5" fill="#D9D9D9"/>
<circle cx="226.5" cy="105.5" r="12.5" fill="#D9D9D9"/>
<circle cx="272.5" cy="104.5" r="12.5" fill="#D9D9D9"/>
<circle cx="318.5" cy="105.5" r="12.5" fill="#D9D9D9"/>
<circle cx="364.5" cy="108.5" r="12.5" fill="#D9D9D9"/>
<circle cx="410.5" cy="114.5" r="12.5" fill="#D9D9D9"/>
<circle cx="456.5" cy="122.5" r="12.5" fill="#D9D9D9"/>
<circle cx="502.5" cy="139.5" r="12.5" fill="#D9D9D9"/>
<circle cx="548.5" cy="166.5" r="12.5" fill="#D9D9D9"/>
<circle cx="580.5" cy="205.5" r="12.5" fill="#D9D9D9"/>
<circle cx="593.5" cy="250.5" r="12.5" fill="#D9D9D9"/>
<circle cx="593.5" cy="303.5" r="12.5" fill="#D9D9D9"/>
<circle cx="515.5" cy="399.5" r="12.5" fill="#D9D9D9"/>
<circle cx="469.5" cy="416.5" r="12.5" fill="#D9D9D9"/>
<circle cx="422.5" cy="425.5" r="12.5" fill="#D9D9D9"/>
<circle cx="375.5" cy="436.5" r="12.5" fill="#D9D9D9"/>
<circle cx="328.5" cy="436.5" r="12.5" fill="#D9D9D9"/>
<circle cx="284.5" cy="448.5" r="12.5" fill="#D9D9D9"/>
<circle cx="246.5" cy="473.5" r="12.5" fill="#D9D9D9"/>
<circle cx="213.5" cy="503.5" r="12.5" fill="#D9D9D9"/>
<circle cx="195.5" cy="541.5" r="12.5" fill="#D9D9D9"/>
<circle cx="188.5" cy="589.5" r="12.5" fill="#D9D9D9"/>
<circle cx="243.5" cy="712.5" r="12.5" fill="#D9D9D9"/>
<circle cx="277.5" cy="755.5" r="12.5" fill="#D9D9D9"/>
<circle cx="321.5" cy="788.5" r="12.5" fill="#D9D9D9"/>
<circle cx="370.5" cy="801.5" r="12.5" fill="#D9D9D9"/>
<circle cx="422.5" cy="789.5" r="12.5" fill="#D9D9D9"/>
<circle cx="469.5" cy="751.5" r="12.5" fill="#D9D9D9"/>
<circle cx="494.5" cy="705.5" r="12.5" fill="#D9D9D9"/>
<circle cx="525.5" cy="658.5" r="12.5" fill="#D9D9D9"/>
<circle cx="550.5" cy="614.5" r="12.5" fill="#D9D9D9"/>
<circle cx="585.5" cy="571.5" r="12.5" fill="#D9D9D9"/>
<circle cx="706.5" cy="509.5" r="12.5" fill="#D9D9D9"/>
<circle cx="758.5" cy="503.5" r="12.5" fill="#D9D9D9"/>
<circle cx="803.5" cy="503.5" r="12.5" fill="#D9D9D9"/>
<circle cx="849.5" cy="503.5" r="12.5" fill="#D9D9D9"/>
<circle cx="895.5" cy="503.5" r="12.5" fill="#D9D9D9"/>
<circle cx="941.5" cy="491.5" r="12.5" fill="#D9D9D9"/>
<circle cx="988.5" cy="479.5" r="12.5" fill="#D9D9D9"/>
<circle cx="1035.5" cy="460.5" r="12.5" fill="#D9D9D9"/>
<circle cx="1077.5" cy="429.5" r="12.5" fill="#D9D9D9"/>
<circle cx="1114.5" cy="395.5" r="12.5" fill="#D9D9D9"/>
<circle cx="1131.5" cy="349.5" r="12.5" fill="#D9D9D9"/>
<circle cx="1156.5" cy="253.5" r="12.5" fill="#D9D9D9"/>
<circle cx="1227.5" cy="146.5" r="12.5" fill="#D9D9D9"/>
<circle cx="1273.5" cy="121.5" r="12.5" fill="#D9D9D9"/>
<circle cx="1322.5" cy="116.5" r="12.5" fill="#D9D9D9"/>
<circle cx="1371.5" cy="117.5" r="12.5" fill="#D9D9D9"/>
<circle cx="1420.5" cy="130.5" r="12.5" fill="#D9D9D9"/>
<circle cx="1466.5" cy="153.5" r="12.5" fill="#D9D9D9"/>
<circle cx="1510.5" cy="184.5" r="12.5" fill="#D9D9D9"/>
<circle cx="1548.5" cy="223.5" r="12.5" fill="#D9D9D9"/>
<circle cx="1578.5" cy="265.5" r="12.5" fill="#D9D9D9"/>
<circle cx="1603.5" cy="309.5" r="12.5" fill="#D9D9D9"/>
<circle cx="1611.5" cy="357.5" r="12.5" fill="#D9D9D9"/>
<circle cx="1619.5" cy="404.5" r="12.5" fill="#D9D9D9"/>
<circle cx="1144.5" cy="303.5" r="12.5" fill="#D9D9D9"/>
</svg>
